<svg width="1573" height="1044" viewBox="0 0 1573 1044" fill="none" xmlns="http://www.w3.org/2000/svg">
<path d="M608.416 479.376L0 -68V1125L608.416 479.376Z" fill="#961313" fill-opacity="0.5"/>
<path d="M682.106 479.376L73.6901 -68V1125L682.106 479.376Z" fill="#961313" fill-opacity="0.5"/>
<path d="M756.741 479.376L148.325 -68V1125L756.741 479.376Z" fill="#961313" fill-opacity="0.5"/>
<path d="M832.32 479.376L223.904 -68V1125L832.32 479.376Z" fill="#961313" fill-opacity="0.5"/>
<path d="M905.065 479.376L296.65 -68V1125L905.065 479.376Z" fill="#961313" fill-opacity="0.5"/>
<path d="M978.756 479.376L370.34 -68V1125L978.756 479.376Z" fill="#961313" fill-opacity="0.5"/>
<path d="M1052.45 479.376L444.03 -68V1125L1052.45 479.376Z" fill="#961313" fill-opacity="0.5"/>
<path d="M1128.97 479.376L520.554 -68V1125L1128.97 479.376Z" fill="#961313" fill-opacity="0.6"/>
<path d="M1214 474.882L940.021 234V759L1214 474.882Z" fill="#961313" fill-opacity="0.5"/>
<path d="M1058.11 468.176L744.459 186V801L1058.11 468.176Z" fill="#961313" fill-opacity="0.5"/>
<path d="M965.529 453.494L668.879 186V769L965.529 453.494Z" fill="#961313" fill-opacity="0.5"/>
<path d="M892.784 453.494L596.134 186V769L892.784 453.494Z" fill="#961313" fill-opacity="0.5"/>
<path d="M817.204 453.494L520.554 186V769L817.204 453.494Z" fill="#961313" fill-opacity="0.7"/>
<path d="M1202.66 479.376L594.244 -68V1125L1202.66 479.376Z" fill="#961313" fill-opacity="0.5"/>
<path d="M1277.29 479.376L668.879 -68V1125L1277.29 479.376Z" fill="#961313" fill-opacity="0.5"/>
<path d="M1352.87 479.376L744.459 -68V1125L1352.87 479.376Z" fill="#961313" fill-opacity="0.5"/>
<path d="M1425.62 479.376L817.204 -68V1125L1425.62 479.376Z" fill="#961313" fill-opacity="0.5"/>
<path d="M1499.31 479.376L890.894 -68V1125L1499.31 479.376Z" fill="#961313" fill-opacity="0.5"/>
<path d="M1573 479.376L964.584 -68V1125L1573 479.376Z" fill="#961313" fill-opacity="0.5"/>
<path d="M338.304 544.506L41.654 305V827L338.304 544.506Z" fill="#961313" fill-opacity="0.5"/>
<path d="M389.32 544.506L121.013 305V827L389.32 544.506Z" fill="#961313" fill-opacity="0.5"/>
<path d="M535.756 549.494L239.106 282V865L535.756 549.494Z" fill="#961313" fill-opacity="0.5"/>
<path d="M250.443 542.882L-23.5334 302V827L250.443 542.882Z" fill="#961313" fill-opacity="0.5"/>
<path d="M94.5598 536.176L-219.095 254V869L94.5598 536.176Z" fill="#961313" fill-opacity="0.5"/>
<path d="M1.97479 521.494L-294.675 254V837L1.97479 521.494Z" fill="#961313" fill-opacity="0.5"/>
<path d="M239.106 547.376L-369.31 0V1193L239.106 547.376Z" fill="#961313" fill-opacity="0.5"/>
<path d="M313.741 547.376L-294.675 0V1193L313.741 547.376Z" fill="#961313" fill-opacity="0.5"/>
<path d="M389.32 547.376L-219.095 0V1193L389.32 547.376Z" fill="#961313" fill-opacity="0.5"/>
<path d="M462.065 547.376L-146.35 0V1193L462.065 547.376Z" fill="#961313" fill-opacity="0.5"/>
<path d="M535.756 547.376L-72.6601 0V1193L535.756 547.376Z" fill="#961313" fill-opacity="0.5"/>
<path d="M609.446 547.376L1.02997 0V1193L609.446 547.376Z" fill="#961313" fill-opacity="0.5"/>
</svg>
